<?xml version="1.0" standalone="no"?>
<!DOCTYPE svg PUBLIC "-//W3C//DTD SVG 20010904//EN"
 "http://www.w3.org/TR/2001/REC-SVG-20010904/DTD/svg10.dtd">
<svg version="1.0" xmlns="http://www.w3.org/2000/svg"
 width="300.000000pt" height="300.000000pt" viewBox="0 0 300.000000 300.000000"
 preserveAspectRatio="xMidYMid meet">

<g transform="translate(0.000000,300.000000) scale(0.100000,-0.100000)"
fill="#000000" stroke="none">
<path d="M1481 2853 c-28 -350 -77 -520 -198 -685 -19 -27 -40 -48 -47 -48 -7
0 -43 43 -80 95 -63 89 -83 112 -90 104 -2 -2 3 -44 11 -94 10 -61 12 -133 9
-225 -7 -180 -38 -313 -110 -473 l-26 -57 27 17 c37 25 193 203 252 287 195
284 291 618 291 1013 0 141 -7 213 -20 213 -4 0 -12 -66 -19 -147z"/>
<path d="M1615 2552 c0 -367 -5 -437 -46 -624 -22 -100 -22 -105 -10 -93 5 6
30 78 56 160 75 241 77 247 85 238 4 -4 17 -63 30 -131 12 -67 25 -124 30
-127 4 -2 25 36 46 85 21 50 41 90 45 90 4 0 12 -30 19 -67 28 -151 106 -330
215 -493 90 -136 116 -156 69 -54 -80 173 -125 345 -145 552 -11 125 -7 233
17 405 9 59 14 113 12 118 -2 6 -50 -41 -106 -105 -57 -64 -107 -116 -113
-116 -25 0 -137 266 -182 437 l-22 81 0 -356z"/>
<path d="M1518 2150 c-4 -8 -12 -43 -18 -76 -27 -159 -95 -305 -275 -594 -188
-302 -252 -438 -286 -613 -37 -193 -20 -358 55 -512 110 -225 290 -355 491
-355 214 0 426 157 524 388 69 164 67 412 -4 622 -30 87 -135 310 -146 310 -5
0 -16 -26 -24 -57 -78 -283 -162 -493 -248 -616 -10 -16 -17 -31 -14 -34 17
-16 170 135 216 214 19 32 41 69 49 82 l15 24 15 -29 c58 -111 53 -275 -14
-406 -33 -66 -124 -161 -178 -187 -76 -37 -138 -45 -219 -27 -282 63 -436 367
-343 677 14 48 64 170 112 270 231 491 264 568 288 679 16 73 20 273 4 240z"/>
<path d="M1669 1649 c256 -255 417 -556 453 -846 13 -111 24 -105 39 24 13
104 0 232 -36 356 -13 45 -22 83 -21 85 2 2 23 -17 46 -42 176 -188 244 -480
189 -814 -20 -124 15 -49 56 118 38 156 41 342 7 470 -72 271 -269 491 -571
640 -82 41 -229 100 -248 100 -3 0 35 -41 86 -91z"/>
<path d="M1084 1463 c-119 -89 -212 -175 -283 -259 -152 -182 -229 -362 -238
-559 -11 -208 33 -370 155 -582 49 -86 70 -83 33 5 -87 204 -119 426 -87 594
22 112 82 258 107 258 4 0 6 -28 2 -63 -7 -80 12 -250 39 -336 21 -70 76 -186
84 -179 2 3 -3 38 -12 79 -25 106 -24 337 0 449 35 161 112 353 221 548 25 45
42 82 37 82 -5 0 -31 -17 -58 -37z"/>
</g>
</svg>
