<?xml version="1.0" standalone="no"?>
<!DOCTYPE svg PUBLIC "-//W3C//DTD SVG 20010904//EN"
 "http://www.w3.org/TR/2001/REC-SVG-20010904/DTD/svg10.dtd">
<svg version="1.0" xmlns="http://www.w3.org/2000/svg"
 width="597.000000pt" height="597.000000pt" viewBox="0 0 597.000000 597.000000"
 preserveAspectRatio="xMidYMid meet">
<metadata>
Created by potrace 1.16, written by Peter Selinger 2001-2019
</metadata>
<g transform="translate(0.000000,597.000000) scale(0.100000,-0.100000)"
fill="#000000" stroke="none">
<path d="M0 2985 l0 -2985 2985 0 2985 0 0 2985 0 2985 -2985 0 -2985 0 0
-2985z m2937 2200 c7 -223 -4 -354 -41 -536 -56 -267 -157 -489 -319 -704 -60
-78 -247 -279 -254 -272 -2 2 12 37 31 78 44 97 83 220 101 327 25 141 19 403
-12 531 -8 35 -6 33 93 -105 47 -65 90 -119 95 -119 18 0 93 103 131 180 88
182 118 341 144 765 10 166 23 104 31 -145z m118 5 c31 -132 95 -312 148 -417
28 -57 54 -103 58 -103 4 0 57 57 119 128 61 70 116 128 120 130 5 2 5 -12 0
-30 -19 -72 -40 -286 -40 -407 0 -189 25 -359 76 -523 27 -87 90 -244 107
-265 5 -7 7 -13 4 -13 -8 0 -98 118 -134 175 -100 161 -203 429 -203 530 0 51
-19 30 -60 -65 -23 -55 -46 -102 -50 -105 -5 -3 -21 62 -36 145 -15 82 -30
150 -34 150 -3 0 -36 -101 -74 -225 -38 -124 -73 -228 -78 -231 -11 -7 -11
-11 11 97 48 235 56 329 55 664 -1 176 -6 350 -11 388 -12 86 -1 74 22 -23z
m-125 -1045 c-26 -110 -59 -190 -242 -579 -83 -177 -164 -359 -180 -406 -35
-103 -46 -233 -29 -336 41 -235 256 -433 472 -434 69 0 180 36 201 65 5 6 8 5
8 -4 0 -11 3 -11 15 -1 8 7 13 16 10 20 -6 9 53 65 60 58 4 -3 -6 -15 -21 -27
-15 -12 -24 -24 -21 -28 4 -3 16 2 27 12 11 10 22 16 25 13 5 -5 -40 -48 -47
-45 -2 1 0 -2 4 -7 5 -6 18 0 32 13 20 19 24 20 30 6 3 -9 2 -13 -4 -10 -6 3
-13 -1 -16 -9 -3 -9 -12 -16 -20 -16 -8 0 -14 -4 -14 -9 0 -5 -3 -16 -6 -25
-4 -10 -1 -16 9 -16 22 0 10 -37 -15 -43 -14 -4 -18 -2 -14 9 3 8 1 14 -4 14
-15 0 -24 -50 -12 -62 6 -6 8 -18 3 -27 -4 -9 -5 -27 0 -41 6 -23 7 -23 8 8 1
18 5 31 10 28 5 -4 8 -17 7 -30 -2 -17 1 -23 10 -19 14 5 18 16 15 40 -1 6 11
16 26 21 25 9 25 11 6 11 -12 1 -25 -4 -28 -9 -5 -8 -11 -7 -21 1 -7 6 -12 14
-10 18 5 8 104 7 111 -1 9 -9 -137 -124 -166 -130 -8 -2 -16 -6 -19 -9 -3 -3
-27 -16 -55 -29 -75 -35 -226 -40 -320 -11 -185 57 -353 243 -429 475 -44 131
-45 330 -2 497 34 135 114 305 246 519 202 330 216 354 257 445 49 108 67 164
88 270 25 126 30 127 33 12 2 -81 -2 -128 -18 -192z m316 -265 c148 -70 343
-207 328 -231 -3 -6 -3 -17 1 -27 5 -14 7 -14 15 -2 9 13 10 13 10 0 0 -13 2
-13 9 -1 7 10 9 7 8 -12 -1 -14 -6 -25 -12 -24 -5 1 -10 -13 -10 -30 0 -25 -4
-33 -17 -33 -19 0 -24 -15 -8 -25 5 -3 17 3 27 15 10 11 21 20 25 20 15 0 8
-29 -9 -38 -14 -9 -14 -11 5 -21 18 -10 22 -9 22 3 0 23 21 31 32 12 5 -9 15
-16 21 -16 17 0 20 42 4 53 -9 6 -8 7 3 5 8 -2 27 -27 41 -55 15 -29 30 -49
34 -45 5 4 5 1 1 -5 -10 -18 -26 -16 -26 2 0 8 -4 15 -10 15 -5 0 -10 -7 -10
-16 0 -13 -4 -11 -18 6 -20 24 -48 19 -38 -6 3 -7 1 -16 -5 -19 -5 -4 -9 -3
-8 2 1 4 1 16 0 26 -1 15 -4 15 -22 5 -18 -12 -23 -9 -47 20 -29 35 -42 40
-42 17 0 -8 -4 -15 -10 -15 -5 0 -10 5 -10 12 0 6 -3 8 -7 5 -3 -4 -12 1 -20
11 -13 15 -13 15 -4 -5 14 -29 14 -33 -4 -33 -17 0 -20 -16 -5 -25 6 -3 10
-14 10 -23 -1 -15 -2 -15 -15 2 -13 17 -15 18 -15 3 0 -9 5 -17 10 -17 6 0 10
-4 10 -10 0 -19 -17 -10 -31 18 -7 15 -31 55 -52 89 -22 35 -35 68 -31 74 4 8
3 9 -4 5 -6 -4 -16 4 -23 16 -7 13 -15 25 -18 28 -19 15 -50 64 -45 71 3 5 1
8 -4 7 -5 -2 -26 17 -46 42 -20 25 -83 91 -139 148 l-102 103 75 -26 c41 -15
121 -48 176 -75z m-746 -242 c-207 -374 -282 -634 -266 -920 4 -64 15 -151 26
-194 25 -97 25 -98 -5 -47 -80 133 -132 361 -122 533 5 87 4 93 -10 75 -8 -11
-30 -52 -48 -90 -87 -184 -95 -401 -24 -654 30 -105 99 -264 138 -320 12 -16
21 -34 21 -41 0 -53 -171 224 -230 374 -55 141 -73 235 -73 386 0 169 21 260
98 415 65 132 130 221 245 336 70 70 279 239 296 239 3 0 -18 -42 -46 -92z
m833 -201 c-4 -6 -1 -7 7 -2 10 6 12 4 7 -9 -4 -9 -3 -15 2 -12 5 3 11 -3 14
-14 3 -11 2 -20 -2 -20 -5 0 -15 -18 -24 -40 -11 -28 -21 -40 -35 -40 -14 0
-21 -9 -25 -27 -6 -34 1 -46 10 -15 6 25 23 30 23 7 0 -17 16 -20 25 -5 13 21
24 -2 13 -26 -9 -20 -9 -30 1 -46 7 -11 10 -23 6 -26 -3 -4 -10 0 -15 8 -8 12
-13 13 -29 3 -13 -8 -22 -9 -26 -3 -3 6 -15 10 -25 10 -10 0 -21 8 -23 18 -3
9 -5 1 -6 -18 -1 -19 -10 -46 -20 -59 l-18 -24 0 29 c0 16 7 35 16 42 9 7 10
11 4 7 -15 -7 -17 8 -4 33 5 9 15 38 22 65 9 37 16 47 32 47 19 0 19 1 4 13
-14 10 -16 18 -8 42 5 17 17 57 26 90 l17 60 19 -39 c10 -21 16 -43 12 -49z
m-262 -1574 c-27 -5 -44 -20 -54 -46 -4 -10 -15 -17 -24 -15 -10 2 -17 -2 -15
-10 2 -12 -83 -57 -100 -54 -5 1 -8 -5 -8 -15 0 -9 -3 -13 -6 -10 -4 4 -27
-21 -52 -56 -24 -34 -41 -53 -37 -42 4 11 8 27 10 35 1 8 7 14 12 13 5 -1 10
5 10 12 0 11 -4 12 -13 4 -7 -6 -17 -8 -23 -5 -5 3 -21 2 -35 -4 -28 -10 -29
-10 -20 14 3 8 12 12 20 9 10 -3 12 0 9 10 -7 17 52 80 66 71 5 -3 9 1 9 9 0
18 27 30 35 17 11 -18 25 -10 25 14 0 19 8 25 43 34 57 15 84 19 132 19 23 0
30 -2 16 -4z m-1551 -53 c252 -18 402 -55 478 -117 24 -19 40 -38 37 -41 -3
-4 -10 -1 -14 6 -9 15 -61 6 -61 -10 0 -5 5 -6 10 -3 6 3 10 -2 11 -12 0 -14
2 -13 9 5 9 22 11 22 35 6 58 -38 17 -103 -90 -144 -22 -8 -25 -7 -23 7 2 9
-2 18 -8 20 -6 2 -10 -7 -10 -19 1 -20 -4 -23 -31 -22 -18 1 -33 -3 -33 -7 0
-14 -17 -11 -34 6 -8 8 -17 11 -20 6 -4 -5 -2 -11 4 -13 5 -1 11 -15 12 -30 1
-15 5 -25 9 -22 12 7 120 -62 111 -71 -4 -5 -1 -5 6 -1 14 8 59 -17 79 -43 7
-9 13 -12 13 -8 0 9 90 -39 100 -53 3 -3 14 -10 25 -14 14 -6 16 -10 7 -13 -8
-3 -24 -1 -35 5 -12 6 -37 13 -55 16 -43 7 -202 76 -202 87 0 5 -4 8 -9 6 -11
-3 -241 115 -241 124 0 9 60 20 71 13 5 -3 9 -1 9 5 0 8 47 25 76 26 6 0 23 8
37 18 31 20 55 14 36 -9 -9 -11 -8 -14 4 -14 8 0 18 12 22 28 3 15 13 34 20
42 14 15 42 80 29 68 -4 -4 -19 1 -34 12 -53 37 -135 52 -331 57 -181 5 -320
-1 -318 -15 1 -4 33 -36 72 -72 207 -186 459 -437 408 -406 -6 4 -11 3 -11 -3
0 -5 -3 -17 -6 -25 -5 -12 -2 -15 10 -10 9 3 16 1 16 -5 0 -6 5 -11 10 -11 6
0 10 8 10 18 0 10 3 13 8 7 4 -6 23 -23 42 -39 19 -16 26 -26 16 -22 -11 4
-43 14 -70 23 -67 22 -76 28 -255 168 -179 140 -360 280 -521 403 l-115 87 80
6 c139 10 465 9 605 -1z m765 -13 c-10 -8 -15 -19 -11 -25 9 -14 38 -3 30 12
-3 6 2 2 10 -8 9 -11 14 -29 10 -40 -4 -15 -3 -17 4 -8 7 10 14 5 30 -21 15
-27 17 -38 9 -47 -9 -10 -9 -11 0 -6 6 3 18 -1 25 -9 7 -9 18 -21 24 -28 22
-25 54 -97 54 -122 0 -14 5 -25 10 -25 6 0 10 10 10 23 0 19 2 18 20 -11 25
-40 27 -74 4 -65 -13 5 -15 2 -10 -15 4 -11 3 -23 -2 -26 -6 -3 -10 0 -9 7 2
55 -4 73 -24 74 -16 2 -19 -2 -14 -15 4 -11 3 -13 -3 -7 -6 6 -12 19 -14 29
-1 11 -9 21 -17 24 -9 3 -11 0 -6 -8 5 -9 4 -11 -3 -6 -7 4 -12 12 -12 17 0 6
-14 28 -32 50 -17 21 -29 41 -27 43 3 3 13 -8 24 -25 20 -29 35 -37 35 -19 0
6 -5 10 -11 10 -6 0 -8 7 -5 16 3 8 2 12 -3 9 -5 -3 -12 -1 -16 5 -3 5 0 10 9
10 8 0 16 6 19 13 6 20 -15 45 -34 40 -14 -4 -17 0 -15 21 2 14 -1 23 -5 20
-5 -3 -9 0 -9 6 0 6 -5 8 -11 4 -8 -4 -7 -9 2 -14 10 -7 10 -11 0 -24 -7 -9
-10 -23 -7 -32 5 -14 4 -15 -8 -5 -9 7 -13 24 -11 42 2 16 0 29 -5 29 -6 0
-10 -4 -10 -10 0 -18 -20 -11 -21 8 0 13 -2 14 -6 2 -9 -23 -36 -40 -49 -29
-6 5 -14 5 -19 1 -7 -6 3 12 30 57 24 39 68 91 78 91 6 0 3 -6 -8 -13z"/>
</g>
</svg>
