<svg xmlns="http://www.w3.org/2000/svg" width="64" height="64" viewBox="0 0 16.933 16.933"><path d="M 8.4631222,1.0585807 C 8.317,1.0600157 8.1997033,1.1796257 8.2011225,1.3257479 c 0,1.0057956 0,2.0115912 0,3.0173869 L 5.1604814,6.1249382 C 4.8152955,6.291183 5.114391,6.8002815 5.4276484,6.5796907 L 8.4533035,4.8061556 11.50583,6.5817577 C 11.813138,6.7655285 12.084746,6.2999148 11.773514,6.122871 L 8.7302892,4.3550204 V 3.1788647 H 10.316756 C 10.46389,3.1795103 10.58326,3.0599075 10.582373,2.9127311 V 1.5913647 C 10.582972,1.4443902 10.463686,1.3251051 10.316756,1.3257479 H 8.7302892 C 8.731728,1.1776037 8.6112664,1.0571419 8.4631222,1.0585807 Z m -0.00982,4.2483195 c -0.04432,0.00238 -0.087326,0.015893 -0.1250561,0.039274 l -2.6453163,1.62264 c -0.0774,0.048273 -0.124469,0.133036 -0.1245402,0.2242757 v 8.4180891 c 5.292e-4,0.145159 0.117919,0.262766 0.2630334,0.26355 h 1.0578166 v -2.380216 c 0,-0.874673 0.7125711,-1.5875 1.586983,-1.5875 0.8744119,0 1.5875004,0.712827 1.5875004,1.5875 v 2.380216 h 1.058333 c 0.145115,-7.93e-4 0.262491,-0.118391 0.263034,-0.26355 V 7.1930899 C 11.374455,7.1013369 11.32635,7.0164612 11.247965,6.9688142 l -2.6427327,-1.62264 c -0.045505,-0.028165 -0.09848,-0.041859 -0.1519288,-0.039274 z m 0.01292,1.5699301 c 0.8731321,0 1.5874988,0.7146239 1.5874998,1.5880167 0,0.8733927 -0.7143677,1.586982 -1.5874998,1.586983 -0.8731324,0 -1.5869835,-0.7135906 -1.5869835,-1.586983 0,-0.8733928 0.7138511,-1.588017 1.5869835,-1.5880167 z m -7.1401325,0.00362 c -0.3533161,-1.942e-4 -0.3533161,0.5294891 0,0.5296831 H 1.5917068 V 7.9392966 H 1.3260901 C 1.1808577,7.9398792 1.0631209,8.0575715 1.0625403,8.202847 v 7.408332 c 5.806e-4,0.145276 0.1183174,0.262969 0.2635498,0.26355 h 3.7532595 c -0.030077,-0.08243 -0.04976,-0.169852 -0.050126,-0.261483 -1.1e-6,-6.88e-4 -1.1e-6,-0.0014 0,-0.0021 V 7.9392974 H 4.7636062 V 7.4101308 h 0.265617 c 0.3531219,0 0.3531219,-0.5296834 0,-0.5296834 z m 10.5781653,0 c -0.353316,-1.942e-4 -0.353316,0.5294891 0,0.5296831 h 0.263549 V 7.9393 h -0.263549 v 7.671883 0.0021 c -3.7e-4,0.09163 -0.02006,0.179052 -0.05013,0.261482 h 3.75326 c 0.145234,-5.82e-4 0.262968,-0.118274 0.263549,-0.263549 V 8.2028436 C 15.870352,8.057568 15.752623,7.9398758 15.607389,7.9392937 H 15.341772 V 7.4101271 h 0.265617 c 0.353122,0 0.353122,-0.5296834 0,-0.5296834 z M 8.4662229,7.4059961 c -0.5873089,0 -1.0573002,0.4713663 -1.0573002,1.0588501 0,0.5874837 0.4699913,1.0578166 1.0573002,1.0578166 0.587308,0 1.058333,-0.4703329 1.058333,-1.0578166 0,-0.5874838 -0.471025,-1.0588501 -1.058333,-1.0588501 z m -6.3468995,0.00413 H 2.9141069 V 7.9392958 H 2.1193233 Z m 1.3223997,0 H 4.2344395 V 7.9392958 H 3.4417233 Z m 9.2557659,0 h 0.792716 v 0.5291666 h -0.792716 z m 1.321883,0 h 0.793233 V 7.9392958 H 14.019372 Z M 8.4626052,7.866949 h 5.292e-4 c 0.14815,-0.00124 0.2684155,0.1194951 0.2666502,0.2676839 v 0.2227255 l 0.2542479,0.251664 C 9.2457922,8.8591491 8.8584745,9.2459332 8.6088616,8.9836766 L 8.279154,8.6524323 C 8.2295978,8.6031656 8.2015451,8.536285 8.2011225,8.4663972 V 8.1346345 C 8.1993763,7.9884657 8.3164787,7.8685873 8.4626052,7.8669506 Z M 1.8568071,8.9976307 H 2.3854569 C 2.5306895,8.9982128 2.648426,9.1159048 2.6490068,9.2611806 V 10.84868 H 1.5911902 V 9.2611806 C 1.591775,9.1150986 1.7107687,8.9970738 1.8568071,8.9976307 Z m 1.8489825,0 h 0.5431197 c 0.1452322,5.821e-4 0.2624524,0.1182741 0.2630326,0.2635499 V 10.84868 c -0.012189,5.29e-4 -1.0697019,0 -1.0697019,0 V 9.2611806 C 3.4428221,9.1159048 3.5605572,8.9982118 3.7057896,8.9976307 Z m 8.9787804,0 h 0.54312 c 0.145232,5.821e-4 0.262967,0.1182741 0.263548,0.2635499 V 10.84868 c 0,0 -1.057511,5.29e-4 -1.069702,0 V 9.2611806 c 5.82e-4,-0.1452758 0.117801,-0.2629678 0.263034,-0.2635499 z m 1.863451,0 h 0.52865 c 0.146038,-5.556e-4 0.265034,0.1174679 0.265617,0.2635499 V 10.84868 H 14.284472 V 9.2611806 C 14.285054,9.1159048 14.40279,8.9982128 14.548021,8.9976307 Z M 1.5911902,11.377846 h 1.0578166 v 1.5875 c -5.821e-4,0.145276 -0.1183173,0.262969 -0.2635499,0.26355 H 1.8568071 c -0.1460384,5.56e-4 -0.2650329,-0.117468 -0.2656169,-0.26355 z m 1.8510498,0 h 1.0697019 v 1.5875 c -5.82e-4,0.145276 -0.1178004,0.262969 -0.2630326,0.26355 H 3.7057896 C 3.5605572,13.228314 3.4428205,13.110622 3.44224,12.965346 Z m 8.979296,0 h 1.069702 v 1.5875 c -5.82e-4,0.145275 -0.118316,0.262968 -0.263548,0.26355 h -0.54312 c -0.145233,-5.82e-4 -0.262453,-0.118275 -0.263034,-0.26355 z m 1.862936,0 h 1.057816 v 1.5875 c -5.82e-4,0.146082 -0.119579,0.264107 -0.265617,0.26355 h -0.52865 c -0.145231,-5.82e-4 -0.262968,-0.118275 -0.263549,-0.26355 z m -5.8182494,1.058333 c -0.5905643,0 -1.0572996,0.467593 -1.0572996,1.058334 v 2.380216 h 2.1156329 v -2.380216 c 0,-0.590741 -0.467769,-1.058334 -1.0583333,-1.058334 z" color="#000" font-family="sans-serif" font-weight="400" overflow="visible" style="line-height:normal;font-variant-ligatures:normal;font-variant-position:normal;font-variant-caps:normal;font-variant-numeric:normal;font-variant-alternates:normal;font-feature-settings:normal;text-indent:0;text-align:start;text-decoration-line:none;text-decoration-style:solid;text-decoration-color:#000;text-transform:none;text-orientation:mixed;shape-padding:0;isolation:auto;mix-blend-mode:normal"/></svg>