<?xml version="1.0" standalone="no"?>
<!DOCTYPE svg PUBLIC "-//W3C//DTD SVG 20010904//EN"
 "http://www.w3.org/TR/2001/REC-SVG-20010904/DTD/svg10.dtd">
<svg version="1.0" xmlns="http://www.w3.org/2000/svg"
 width="225.000000pt" height="225.000000pt" viewBox="0 0 225.000000 225.000000"
 preserveAspectRatio="xMidYMid meet">
<metadata>
Created by potrace 1.16, written by Peter Selinger 2001-2019
</metadata>
<g transform="translate(0.000000,225.000000) scale(0.100000,-0.100000)"
fill="#000000" stroke="none">
<path d="M1012 2109 c-403 -49 -731 -346 -820 -744 -24 -108 -21 -308 6 -419
86 -345 358 -615 708 -703 95 -24 333 -24 428 0 350 88 623 359 708 703 27
111 30 312 6 419 -68 304 -289 566 -572 680 -141 57 -319 82 -464 64z m336
-54 c160 -41 296 -119 418 -240 122 -121 206 -273 251 -453 26 -103 23 -303
-6 -412 -88 -332 -329 -575 -666 -672 -68 -20 -102 -23 -230 -22 -133 0 -160
3 -237 27 -166 51 -275 114 -395 230 -121 117 -209 267 -255 438 -29 107 -31
307 -5 411 70 284 243 503 492 627 200 99 414 121 633 66z"/>
<path d="M1214 1870 c-94 -19 -168 -71 -207 -144 -16 -32 -22 -64 -25 -143
l-4 -103 -72 0 c-88 0 -154 -28 -209 -90 -46 -50 -62 -87 -71 -155 l-6 -50 14
36 c28 73 56 116 101 158 57 52 119 81 191 88 l54 6 0 -31 c0 -31 -14 -42 -53
-42 -42 0 -123 -47 -165 -95 -82 -93 -92 -165 -76 -543 l7 -174 176 4 c192 4
209 8 241 61 16 26 20 51 20 125 l0 94 55 -4 55 -3 0 38 0 37 185 0 185 0 0
63 c0 34 5 157 10 272 11 239 4 308 -39 402 -49 104 -129 168 -239 192 -59 12
-69 12 -128 1z m169 -46 c59 -20 126 -79 159 -140 47 -89 52 -133 44 -428 -4
-148 -10 -274 -12 -278 -6 -10 -221 -11 -288 -2 l-46 7 0 116 c0 124 -15 178
-63 230 -26 28 -113 71 -144 71 -23 0 -23 2 -23 119 0 136 14 188 63 240 72
75 201 102 310 65z m-406 -509 l-6 -55 63 0 63 0 7 -61 c3 -34 6 -85 6 -113 0
-62 25 -107 69 -126 22 -9 31 -19 31 -36 0 -22 -4 -24 -54 -24 l-54 0 -4 -111
c-3 -105 -4 -112 -29 -133 -24 -21 -40 -23 -180 -29 -85 -3 -157 -2 -162 2 -4
4 -8 124 -10 267 l-2 259 26 55 c44 94 129 159 208 160 l34 0 -6 -55z m108 36
c51 -23 101 -80 115 -131 6 -22 9 -86 8 -142 l-3 -103 -32 32 c-33 31 -33 33
-33 126 0 52 -3 109 -6 126 -6 30 -7 31 -65 31 l-59 0 0 40 c0 47 12 50 75 21z"/>
<path d="M1175 1575 c-49 -48 -15 -135 52 -135 32 1 55 15 71 47 18 34 14 52
-17 84 -36 36 -73 37 -106 4z"/>
<path d="M1198 809 c-12 -7 -18 -22 -18 -46 0 -29 7 -42 37 -68 29 -25 35 -35
28 -51 -8 -17 -9 -16 -13 9 -3 21 -9 27 -28 27 -22 0 -25 -4 -22 -32 6 -69
109 -60 116 9 3 32 -5 43 -57 86 -12 10 -19 23 -15 29 5 8 11 6 19 -5 19 -26
45 -21 45 8 0 38 -52 58 -92 34z"/>
<path d="M1342 804 c-20 -13 -22 -24 -22 -93 0 -63 4 -81 18 -94 20 -19 48
-22 56 -8 3 5 15 7 26 4 18 -5 20 0 20 51 0 56 0 56 -30 56 -30 0 -30 -1 -24
-40 4 -27 3 -40 -5 -40 -7 0 -11 25 -11 70 0 40 4 70 10 70 6 0 10 -9 10 -20
0 -15 7 -20 25 -20 20 0 25 5 25 24 0 26 -33 56 -60 56 -9 0 -26 -7 -38 -16z"/>
<path d="M1485 804 c-12 -13 -15 -34 -13 -102 3 -85 4 -87 31 -96 41 -15 81
10 85 52 3 29 0 32 -22 32 -21 0 -26 -5 -26 -25 0 -14 -4 -25 -10 -25 -6 0
-10 30 -10 70 0 40 4 70 10 70 6 0 10 -13 10 -30 0 -25 4 -30 25 -30 22 0 25
4 25 34 0 56 -67 88 -105 50z"/>
</g>
</svg>
